HIERARCHY
ROOT Hip
{
   OFFSET 0.00000 0.00000 0.00000
   CHANNELS 6 Xposition Yposition Zposition Zrotation Yrotation Xrotation
   JOINT Head
   {
      OFFSET 0.000000 24.190001 0.000000
      CHANNELS 3 Zrotation Yrotation Xrotation
      End Site
      {
         OFFSET 0.000000 16.761999 0.000000
      }
      JOINT LeftShoulder
      {
         OFFSET 11.515001 0.000000 0.000000
         CHANNELS 3 Zrotation Yrotation Xrotation
         JOINT LeftHand
         {
            OFFSET 0.000000 -15.248000 0.000000
            CHANNELS 3 Zrotation Yrotation Xrotation
            End Site
            {
               OFFSET 0.000000 -14.262999 0.000000
            }
         }
      }
      JOINT RightShoulder
      {
         OFFSET -12.116999 0.000000 0.000000
         CHANNELS 3 Zrotation Yrotation Xrotation
         JOINT RightHand
         {
            OFFSET 0.000000 -16.378001 0.000000
            CHANNELS 3 Zrotation Yrotation Xrotation
            End Site
            {
               OFFSET 0.000000 -13.832000 0.000000
            }
         }
      }
   }
   JOINT LeftHip
   {
      OFFSET 8.994099 0.000000 0.000000
      CHANNELS 3 Zrotation Yrotation Xrotation
      JOINT LeftKnee
      {
         OFFSET 0.000000 -25.251000 0.000000
         CHANNELS 3 Zrotation Yrotation Xrotation
         JOINT LeftFoot
         {
            OFFSET 0.000000 -22.891001 0.000000
            CHANNELS 3 Zrotation Yrotation Xrotation
            End Site
            {
               OFFSET 0.000000 0.000000 14.411000
            }
         }
      }
   }
   JOINT RightHip
   {
      OFFSET -8.994099 0.000000 0.000000
      CHANNELS 3 Zrotation Yrotation Xrotation
      JOINT RightKnee
      {
         OFFSET 0.000000 -25.909001 0.000000
         CHANNELS 3 Zrotation Yrotation Xrotation
         JOINT RightFoot
         {
            OFFSET 0.000000 -21.714000 0.000000
            CHANNELS 3 Zrotation Yrotation Xrotation
            End Site
            {
               OFFSET 0.000000 0.000000 13.963001
            }
         }
      }
   }
}
MOTION
Frames: 12
Frame Time: 0.016670
-6.171664 46.005377 15.830095 0.636812 -13.229354 2.388630 -1.243766 2.742703 -29.742810 8.899558 0.723956 32.983496 12.905411 -4.581531 59.972141 -0.065950 4.424042 22.500122 8.839987 -0.276634 35.459672 68.541290 81.378050 74.084842 -36.584525 40.078034 -8.190063 -1.909249 45.295499 -30.594477 12.706248 -57.612079 -5.072090 30.586974 -37.608531 -18.900559 2.840928 -45.420772 -32.219826
-6.167394 46.021222 15.832152 0.617722 -13.314155 2.159026 -1.141913 2.717316 -29.529913 8.402397 0.062767 32.900977 13.105770 -3.362903 60.423945 1.364220 8.056875 22.750173 13.084777 0.981519 34.923509 127.330572 77.935573 132.099943 -33.230960 34.190056 -0.940420 -4.229736 41.664857 -32.149315 12.696415 -60.084935 -4.920652 30.178361 -36.581779 -17.623640 2.221380 -44.494038 -31.677786
-6.149112 46.028866 15.792840 0.588987 -13.091071 2.246515 -1.029783 2.391202 -29.932788 7.941325 -0.590503 33.444554 13.297245 -2.105432 60.517621 2.813853 11.494816 23.725150 17.246424 2.351889 34.005490 163.400637 53.097853 165.840490 -23.398462 22.634187 14.984206 -3.180233 29.129046 -31.070756 13.304147 -62.312424 -5.502915 29.838740 -35.806167 -16.561515 1.594705 -43.683072 -31.208463
-6.123853 46.033744 15.753702 0.542306 -13.431198 1.963599 -0.867637 2.625939 -29.578107 7.298582 -1.111737 32.912472 13.649050 -1.033950 61.392889 4.053590 15.096207 23.846231 21.658270 3.623782 33.351209 168.969072 31.519612 168.854215 -15.685063 16.498713 25.978773 -0.190089 15.650286 -29.699930 13.384764 -64.287455 -5.486385 29.352721 -35.080183 -15.351583 0.924636 -42.705392 -30.711748
-6.108124 46.044187 15.724679 0.507737 -13.661937 1.704277 -0.733517 2.736002 -29.400881 6.836974 -1.676442 32.475951 13.965775 0.110159 62.439670 5.275479 18.403214 24.292355 25.900721 4.946333 32.651378 171.342071 18.178193 169.258194 -8.585751 15.331845 31.569390 3.293567 4.287214 -29.469285 13.409272 -66.166283 -5.432178 28.947049 -34.493145 -14.271959 0.289208 -41.767362 -30.214281
-6.093144 46.055526 15.696956 0.469118 -13.804503 1.422266 -0.583922 2.767870 -29.304319 6.337661 -2.245615 31.929755 14.342535 1.116798 63.677840 6.417074 21.485776 24.869205 29.994270 6.291594 31.905026 172.905542 9.035703 169.024151 -1.577341 16.431159 35.046793 6.890473 -5.753397 -30.555626 13.193931 -68.050650 -5.138577 28.726597 -33.972149 -13.285615 -0.368004 -40.848718 -29.780079
-6.099861 46.082501 15.704843 0.420532 -13.639484 1.090161 -0.355898 2.476615 -29.178032 5.981021 -2.838843 31.586367 14.669443 2.200110 65.092317 7.506150 24.286469 25.619543 33.802261 7.685975 31.217414 174.123174 2.822767 168.477749 5.217819 18.744585 37.598685 10.192925 -14.791101 -32.642382 12.218954 -70.154519 -4.061246 28.840098 -33.464071 -12.340093 -0.992195 -39.959977 -29.350901
-6.102638 46.108727 15.696667 0.378760 -13.577094 0.803250 -0.144819 2.309892 -29.055816 5.624245 -3.501219 31.175152 15.049048 3.008211 67.138075 8.592188 26.796789 26.465711 37.464011 9.027432 30.639706 175.039266 -1.318640 167.864548 11.673460 21.945987 39.918556 12.982720 -22.941489 -35.284672 10.969530 -72.057580 -2.779464 29.041493 -33.015055 -11.336191 -1.642324 -39.088391 -29.006024
-6.107191 46.138911 15.693173 0.342055 -13.507369 0.507255 0.097903 2.296857 -28.861343 5.393976 -4.253393 30.699914 15.435796 3.606458 69.804383 9.662486 28.955235 27.483047 41.016133 10.275133 30.131646 175.682519 -3.835189 167.200217 17.862060 25.659438 42.425010 15.316180 -30.411206 -38.093553 9.005294 -73.736038 -0.825509 29.414722 -32.624638 -10.339114 -2.270521 -38.277719 -28.724733
-6.128364 46.173019 15.713485 0.264426 -13.375635 0.150589 0.306228 2.251420 -28.678339 5.178947 -5.058978 30.174738 15.800430 4.040896 72.711619 10.681424 30.828284 28.583787 44.473609 11.413038 29.704824 176.149581 -5.054647 166.427681 23.875191 29.567534 45.357084 17.289517 -37.292099 -40.794712 5.948565 -74.822707 2.276940 30.107464 -32.447292 -9.665244 -2.736171 -37.776960 -28.450559
-6.162314 46.204128 15.746567 0.151670 -13.284369 -0.268187 0.519109 2.220752 -28.467059 4.989151 -5.792575 29.640333 16.086359 4.442517 75.671133 11.643708 32.603362 29.635439 48.180585 12.254058 29.428693 176.517660 -5.310947 165.628864 30.003047 33.481901 48.763043 18.953220 -43.685514 -43.332848 2.068394 -74.302227 6.090178 31.277106 -32.847824 -9.401202 -2.998030 -38.049649 -28.425427
-6.205048 46.243104 15.798267 0.035673 -13.157640 -0.767748 0.736480 2.182809 -28.209395 4.866518 -6.448283 29.115003 16.284008 4.842329 78.655072 12.529742 34.247979 30.676613 51.898229 12.929608 29.148078 176.702567 -4.901445 164.796086 36.091505 37.157216 52.695978 20.420640 -49.663600 -45.588081 -1.546594 -72.370656 9.681761 33.072128 -33.607994 -9.957568 -2.975255 -38.982758 -28.482609
